# xmcd
#
# Track frame offsets:
#	150
#	34248
#	45799
#	59669
#	75186
#	104885
#	130022
#	146939
#	172421
#	204743
#	212515
#	256040
#
# Disc length: 3418 seconds
#
# Revision: 1
# Processed by: cddbd v1.5.1PL0 Copyright (c) Steve Scherf et al.
# Submitted via: CDex 1.50Beta5
#
DISCID=af0d580c
DTITLE=TAGOMAGO - PRELUDE FOR AFTERNOON
DYEAR=2002
DGENRE=Rock
TTITLE0=WORLD WIDE WIFE
TTITLE1=HIROMI FEELING
TTITLE2=AHH
TTITLE3=インドと私
TTITLE4=擬似恋愛
TTITLE5=JAZZ EFFECT
TTITLE6=SHOCK THE GIRAFFE
TTITLE7=FOOT STEPS
TTITLE8=INSTANT NOISE
TTITLE9=キッチン
TTITLE10=JUNGLE TRAIN
TTITLE11=だめだよ
EXTD=
EXTT0=
EXTT1=
EXTT2=
EXTT3=
EXTT4=
EXTT5=
EXTT6=
EXTT7=
EXTT8=
EXTT9=
EXTT10=
EXTT11=
PLAYORDER=
